<?xml version="1.0" standalone="no"?><!DOCTYPE svg PUBLIC "-//W3C//DTD SVG 1.1//EN" "http://www.w3.org/Graphics/SVG/1.1/DTD/svg11.dtd"><svg t="1559394538053" class="icon" style="" viewBox="0 0 1025 1024" version="1.1" xmlns="http://www.w3.org/2000/svg" p-id="2253" xmlns:xlink="http://www.w3.org/1999/xlink" width="200.1953125" height="200"><defs><style type="text/css"></style></defs><path d="M983.563361 551.032633l-943.828399 0c-21.73548 0-39.369576-17.634096-39.369576-39.352433 0-21.729766 17.634096-39.369576 39.369576-39.369576l943.828399 0c21.764051 0 39.363862 17.63981 39.363862 39.369576C1022.921508 533.398537 1005.327412 551.032633 983.563361 551.032633L983.563361 551.032633 983.563361 551.032633 983.563361 551.032633zM905.338489 1023.3604 669.181035 1023.3604c-21.758337 0-39.358147-17.606953-39.358147-39.369576 0-21.762622 17.59981-39.358147 39.358147-39.358147l236.157455 0c21.729766 0 39.363862-17.632668 39.363862-39.358147L944.702351 708.475222c0-21.764051 17.588382-39.358147 39.363862-39.358147 21.762622 0 39.346719 17.594096 39.346719 39.358147l0 196.799307C1023.418645 970.369542 970.439216 1023.3604 905.338489 1023.3604L905.338489 1023.3604 905.338489 1023.3604 905.338489 1023.3604zM314.949138 1023.3604l-196.80645 0c-65.08787 0-118.073013-52.990858-118.073013-118.08587L0.069674 708.475222c0-21.764051 17.634096-39.358147 39.358147-39.358147 21.729766 0 39.362432 17.594096 39.362432 39.358147l0 196.799307c0 21.719766 17.668381 39.352433 39.352433 39.352433l196.800737 0c21.729766 0 39.363862 17.601239 39.363862 39.363862C354.307285 1005.753447 336.673189 1023.3604 314.949138 1023.3604L314.949138 1023.3604 314.949138 1023.3604 314.949138 1023.3604zM39.433536 354.231897c-21.729766 0-39.358147-17.628381-39.358147-39.352433l0-196.799307c0-65.106441 52.973714-118.080156 118.067299-118.080156l196.800737 0c21.729766 0 39.363862 17.634096 39.363862 39.358147 0 21.724051-17.634096 39.358147-39.363862 39.358147l-196.800737 0c-21.684052 0-39.352433 17.672667-39.352433 39.363862l0 196.793593C78.790254 336.603515 61.157588 354.231897 39.433536 354.231897L39.433536 354.231897 39.433536 354.231897 39.433536 354.231897zM984.066213 354.231897c-21.775479 0-39.363862-17.628381-39.363862-39.352433l0-196.799307c0-21.685481-17.628381-39.363862-39.363862-39.363862L669.181035 78.716294c-21.758337 0-39.358147-17.634096-39.358147-39.358147 0-21.724051 17.59981-39.358147 39.358147-39.358147l236.157455 0c65.100727 0 118.080156 52.973714 118.080156 118.084441l0 196.795022C1023.418645 336.603515 1005.828835 354.231897 984.066213 354.231897L984.066213 354.231897 984.066213 354.231897 984.066213 354.231897zM984.066213 354.231897" p-id="2254" fill="#2c2c2c"></path></svg>