<?xml version="1.0" standalone="no"?><!DOCTYPE svg PUBLIC "-//W3C//DTD SVG 1.1//EN" "http://www.w3.org/Graphics/SVG/1.1/DTD/svg11.dtd"><svg t="1559394347770" class="icon" style="" viewBox="0 0 1024 1024" version="1.1" xmlns="http://www.w3.org/2000/svg" p-id="1898" xmlns:xlink="http://www.w3.org/1999/xlink" width="200" height="200"><defs><style type="text/css"></style></defs><path d="M929.7 251.3h-28.9c0-71.7-58.4-130.1-130.1-130.1V92.3c87.7 0 159 71.3 159 159z" fill="#d81e06" p-id="1899"></path><path d="M857.1 754.2H342.4c-108 0-195.5-87.5-195.5-195.5V241.8h768.7c37.2 0 67.4 30.2 67.4 67.4v319.2c0 69.5-56.4 125.8-125.9 125.8z" fill="#d81e06" p-id="1900"></path><path d="M857.1 767.7H342.4c-115.3 0-209-93.8-209-209V241.8c0-7.4 6-13.5 13.5-13.5h768.7c44.6 0 80.9 36.3 80.9 80.9v319.2c0 76.8-62.5 139.3-139.4 139.3zM160.4 255.3v303.4c0 100.4 81.7 182.1 182.1 182.1h514.7c62 0 112.4-50.4 112.4-112.4V309.2c0-29.7-24.2-53.9-53.9-53.9H160.4z" fill="#d81e06" p-id="1901"></path><path d="M821.2 659.8c-7.4 0-13.5-6-13.5-13.5V616c0-7.4 6-13.5 13.5-13.5s13.5 6 13.5 13.5v30.3c0 7.5-6.1 13.5-13.5 13.5zM821.2 578.9c-7.4 0-13.5-6-13.5-13.5V295.7c0-7.4 6-13.5 13.5-13.5s13.5 6 13.5 13.5v269.7c0 7.5-6.1 13.5-13.5 13.5zM146.9 471c-7.4 0-13.5-6-13.5-13.5V106.9c0-7.4 6-13.5 13.5-13.5s13.5 6 13.5 13.5v350.6c0 7.5-6.1 13.5-13.5 13.5z" fill="#d81e06" p-id="1902"></path><path d="M146.9 120.4H39c-7.4 0-13.5-6-13.5-13.5s6-13.5 13.5-13.5h107.9c7.4 0 13.5 6 13.5 13.5s-6.1 13.5-13.5 13.5zM335.7 929.6c-37.2 0-67.4-30.2-67.4-67.4s30.2-67.4 67.4-67.4 67.4 30.2 67.4 67.4c0 37.1-30.2 67.4-67.4 67.4z m0-107.9c-22.3 0-40.5 18.1-40.5 40.5 0 22.3 18.1 40.5 40.5 40.5s40.5-18.1 40.5-40.5c-0.1-22.4-18.2-40.5-40.5-40.5z" fill="#d81e06" p-id="1903"></path><path d="M848.1 929.6c-37.2 0-67.4-30.2-67.4-67.4s30.2-67.4 67.4-67.4 67.4 30.2 67.4 67.4c0.1 37.1-30.2 67.4-67.4 67.4z m0-107.9c-22.3 0-40.5 18.1-40.5 40.5 0 22.3 18.1 40.5 40.5 40.5 22.3 0 40.5-18.1 40.5-40.5s-18.1-40.5-40.5-40.5z" fill="#d81e06" p-id="1904"></path></svg>